<?xml version="1.0" encoding="utf-8" ?>
<svg baseProfile="full" height="1536" version="1.1" viewBox="0 0 1024 1536" width="1024" xmlns="http://www.w3.org/2000/svg" xmlns:ev="http://www.w3.org/2001/xml-events" xmlns:xlink="http://www.w3.org/1999/xlink"><defs /><path d="M 452 846 L 435 848 L 422 863 L 417 883 L 415 943 L 408 961 L 400 966 L 392 963 L 400 955 L 400 944 L 396 938 L 383 936 L 375 943 L 374 959 L 386 974 L 405 976 L 413 972 L 424 959 L 431 936 L 436 861 L 444 854 L 444 865 L 448 870 L 457 871 L 462 866 L 462 855 Z M 627 825 L 617 836 L 615 849 L 618 879 L 627 903 L 636 915 L 649 925 L 667 930 L 680 928 L 675 942 L 675 955 L 694 1020 L 695 1047 L 692 1068 L 686 1088 L 675 1109 L 640 1145 L 604 1164 L 572 1174 L 540 1179 L 535 1191 L 595 1180 L 643 1159 L 661 1146 L 680 1126 L 692 1108 L 703 1080 L 708 1048 L 706 1017 L 687 957 L 687 942 L 695 927 L 695 921 L 690 914 L 678 918 L 658 916 L 641 902 L 628 871 Z M 592 562 L 586 570 L 609 585 L 630 606 L 649 638 L 657 662 L 661 708 L 656 752 L 662 769 L 647 778 L 643 792 L 658 782 L 666 782 L 675 787 L 680 782 L 680 774 L 672 765 L 667 749 L 672 716 L 672 683 L 663 641 L 651 616 L 635 594 L 617 577 Z M 474 546 L 440 558 L 404 581 L 375 615 L 360 649 L 355 676 L 355 712 L 361 753 L 349 782 L 355 787 L 363 782 L 372 782 L 382 790 L 393 816 L 395 850 L 388 886 L 376 906 L 358 918 L 348 919 L 334 915 L 329 921 L 329 928 L 337 942 L 338 954 L 321 1015 L 320 1055 L 325 1081 L 336 1108 L 354 1133 L 370 1148 L 396 1165 L 424 1177 L 469 1188 L 498 1191 L 494 1180 L 461 1175 L 430 1166 L 398 1151 L 374 1133 L 355 1111 L 344 1092 L 336 1070 L 332 1044 L 334 1011 L 349 958 L 348 939 L 343 929 L 364 928 L 377 921 L 388 910 L 400 887 L 406 854 L 405 822 L 398 795 L 384 776 L 367 769 L 372 757 L 366 705 L 370 657 L 383 624 L 398 603 L 417 585 L 435 573 L 476 557 Z M 531 351 L 523 351 L 527 543 L 544 522 L 539 366 L 552 372 L 565 384 L 577 408 L 581 441 L 571 485 L 551 522 L 530 550 L 420 657 L 401 687 L 392 720 L 394 761 L 408 796 L 419 812 L 438 831 L 476 855 L 476 920 L 465 921 L 463 931 L 473 935 L 477 976 L 494 1047 L 499 1094 L 494 1169 L 499 1182 L 511 1198 L 516 1235 L 521 1234 L 524 1196 L 532 1186 L 538 1168 L 532 1111 L 534 1062 L 553 970 L 555 935 L 563 934 L 565 931 L 563 921 L 553 920 L 553 866 L 579 858 L 585 879 L 591 944 L 598 960 L 608 971 L 621 977 L 634 976 L 648 965 L 651 958 L 651 947 L 641 936 L 632 936 L 624 944 L 624 954 L 632 962 L 630 965 L 620 965 L 611 956 L 605 931 L 602 882 L 597 866 L 588 853 L 620 828 L 637 802 L 645 772 L 645 745 L 640 724 L 626 699 L 603 679 L 575 670 L 543 673 L 541 671 L 539 612 L 584 563 L 606 521 L 613 473 L 610 441 L 600 410 L 583 382 L 556 359 Z M 544 866 L 546 919 L 530 921 L 527 868 Z M 507 864 L 521 868 L 520 921 L 508 920 L 506 916 Z M 484 857 L 499 863 L 500 919 L 495 921 L 484 919 Z M 538 732 L 545 851 L 527 852 L 524 771 L 533 766 L 524 756 L 523 745 L 532 734 Z M 553 728 L 569 730 L 583 738 L 599 757 L 607 782 L 607 803 L 599 824 L 580 841 L 557 850 L 552 847 L 547 730 Z M 494 647 L 496 705 L 490 721 L 489 734 L 491 747 L 497 759 L 498 840 L 505 843 L 505 764 L 518 770 L 520 848 L 525 849 L 525 852 L 492 842 L 455 818 L 433 791 L 423 763 L 423 738 L 432 711 L 455 680 L 476 662 L 475 829 L 483 834 L 484 655 Z M 512 633 L 515 685 L 503 696 L 501 642 Z M 530 619 L 533 676 L 521 682 L 519 628 Z M 506 161 L 501 166 L 493 217 L 496 176 L 491 177 L 486 194 L 477 193 L 472 199 L 474 216 L 482 217 L 485 230 L 496 234 L 493 269 L 469 270 L 463 258 L 448 254 L 436 262 L 433 273 L 422 277 L 422 283 L 434 284 L 446 294 L 461 292 L 468 284 L 492 285 L 489 319 L 469 319 L 463 309 L 447 306 L 437 313 L 433 323 L 422 327 L 423 332 L 434 333 L 441 342 L 448 345 L 461 343 L 469 332 L 490 334 L 483 588 L 505 566 L 504 409 L 507 269 L 510 284 L 510 563 L 525 545 L 519 266 L 523 348 L 539 349 L 537 308 L 553 308 L 558 317 L 568 323 L 581 322 L 590 312 L 589 293 L 578 283 L 563 284 L 554 295 L 535 293 L 534 261 L 554 261 L 561 272 L 574 275 L 588 267 L 591 248 L 587 238 L 574 231 L 562 234 L 554 247 L 533 246 L 532 236 L 543 232 L 544 218 L 554 216 L 556 200 L 551 194 L 541 195 L 537 179 L 530 178 L 536 217 L 533 218 L 527 169 L 524 162 Z" fill="black" fill-rule="evenodd" stroke="none" /></svg>